<?xml version="1.0" encoding="UTF-8"?>
<svg width="18px" height="18px" viewBox="0 0 18 18" version="1.1" xmlns="http://www.w3.org/2000/svg" xmlns:xlink="http://www.w3.org/1999/xlink">
    <!-- Generator: Sketch 49.1 (51147) - http://www.bohemiancoding.com/sketch -->
    <title>播放</title>
    <desc>Created with Sketch.</desc>
    <defs></defs>
    <g id="Page-1" stroke="none" stroke-width="1" fill="none" fill-rule="evenodd">
        <g id="播放" fill="#000000" fill-rule="nonzero">
            <path d="M9,0 C4.03758,0 0,4.03758 0,9 C0,13.96242 4.03758,18 9,18 C13.96242,18 18,13.96242 18,9 C18,4.03758 13.96242,0 9,0 Z M9,16.99992 C4.58892,16.99992 1.00008,13.41108 1.00008,9 C1.00008,4.58892 4.58892,1.00008 9,1.00008 C13.41108,1.00008 16.99992,4.58892 16.99992,9 C16.99992,13.41108 13.41108,16.99992 9,16.99992 Z" id="Shape"></path>
            <path d="M13.2891927,8.5960133 L7.28231848,4.59598885 C7.1287122,4.49369712 6.93121053,4.48415067 6.76843381,4.57114969 C6.6056571,4.65814872 6.50402706,4.82757164 6.504,5.01197555 L6.504,13.0120244 C6.50402706,13.1964284 6.6056571,13.3658513 6.76843381,13.4528503 C6.93121053,13.5398493 7.1287122,13.5303029 7.28231848,13.4280111 L13.2891927,9.4279867 C13.428396,9.33523337 13.512,9.17914258 13.512,9.012 C13.512,8.84485742 13.428396,8.68876663 13.2891927,8.5960133 Z M7.50451497,12.0779894 L7.50451497,5.9460106 L12.1091905,9.012 L7.50451497,12.0779894 Z" id="Shape"></path>
        </g>
    </g>
</svg>